#!OML:ASF H:\GeneralSubjects\Female5\Project 1\Capture day 1\Session 1\Female5.ASF
:FULLY-SPECIFIED
:DEGREES
257
root -9.28788 15.4207 4.79908 9.58 79.4553 0.580839
lowerback 12.8179 0.782659 5.20099
upperback -7.74829 2.29763 0.591714
thorax -15.849 0.580476 -2.87123
lowerneck -11.2098 -2.51737 0.490132
upperneck 45.4191 -0.317082 -2.46912
head 19.3711 0.497198 -1.06449
rclavicle 1.68967e-015 -1.74931e-014
rhumerus -56.8715 13.9353 -87.2433
rradius 40.7171
rwrist -7.94731
rhand -22.4519 -22.3067
rfingers 7.12502
rthumb 3.97242 -52.2494
lclavicle 1.68967e-015 -1.74931e-014
lhumerus -46.3767 -6.1172 78.1462
lradius 37.2364
lwrist -14.3338
lhand -30.8248 30.303
lfingers 7.12502
lthumb -4.11393 60.2431
rfemur -24.5288 4.59919 31.9995
rtibia 35.1218
rfoot -15.4757 -11.6954
rtoes -20.212
lfemur -31.5216 -5.32249 -27.9384
ltibia 45.4608
lfoot -26.8836 -2.9107
ltoes -32.8566
258
root -9.15579 15.6466 4.8074 8.89434 79.7571 -0.248395
lowerback 12.7581 0.718955 5.27956
upperback -7.87774 2.24004 0.628513
thorax -15.9756 0.544707 -2.85938
lowerneck -11.3916 -2.49863 0.362174
upperneck 45.4374 -0.270154 -2.42634
head 19.4402 0.497306 -1.01362
rclavicle 2.16427e-014 9.54166e-015
rhumerus -56.4642 14.3097 -87.3638
rradius 42.7058
rwrist -9.85861
rhand -22.8278 -22.1933
rfingers 7.12502
rthumb 3.60938 -52.1425
lclavicle 2.16427e-014 9.54166e-015
lhumerus -45.755 -5.76893 77.4715
lradius 37.455
lwrist -13.4641
lhand -31.2176 30.618
lfingers 7.12502
lthumb -4.49324 60.5503
rfemur -22.4761 4.63975 31.8461
rtibia 32.0297
rfoot -13.6935 -12.0514
rtoes -20.1487
lfemur -31.0714 -6.30295 -27.5504
ltibia 44.3262
lfoot -26.0541 -1.80641
ltoes -34.2335
259
root -9.03192 15.8654 4.81796 7.80545 80.141 -1.47929
lowerback 12.7472 0.654445 5.33678
upperback -7.99311 2.18477 0.700043
thorax -16.1187 0.514526 -2.79775
lowerneck -11.5317 -2.49947 0.248829
upperneck 45.4892 -0.236304 -2.40626
head 19.5195 0.495159 -0.978147
rclavicle 2.28105e-014 -8.74653e-015
rhumerus -56.1531 14.8518 -87.5207
rradius 44.6422
rwrist -11.5221
rhand -23.3206 -21.7933
rfingers 7.12502
rthumb 3.13348 -51.75
lclavicle 2.28105e-014 -8.74653e-015
lhumerus -44.8573 -5.48351 76.9252
lradius 37.0235
lwrist -13.3086
lhand -31.5378 30.7266
lfingers 7.12502
lthumb -4.80249 60.6522
rfemur -20.3314 4.6867 31.7916
rtibia 28.663
rfoot -11.7826 -12.6395
rtoes -20.0364
lfemur -30.5218 -7.44733 -27.0327
ltibia 42.3987
lfoot -25.0189 -1.21309
ltoes -35.6135
260
root -8.91135 16.0708 4.83171 6.30808 80.566 -3.12787
lowerback 12.7137 0.60043 5.35212
upperback -8.09614 2.13877 0.80669
thorax -16.2337 0.497453 -2.67388
lowerneck -11.6312 -2.52857 0.130641
upperneck 45.5982 -0.226697 -2.39427
head 19.6257 0.485949 -0.949588
rclavicle -2.93456e-014 -6.36111e-015
rhumerus -55.9045 15.5425 -87.6672
rradius 46.4707
rwrist -12.4978
rhand -23.8374 -21.2368
rfingers 7.12502
rthumb 2.63444 -51.2002
lclavicle -2.93456e-014 -6.36111e-015
lhumerus -43.7724 -5.19166 76.4824
lradius 36.0829
lwrist -13.8094
lhand -31.7863 30.6927
lfingers 7.12502
lthumb -5.04236 60.6127
rfemur -18.1917 4.79659 31.8311
rtibia 25.2235
rfoot -9.84709 -13.4375
rtoes -19.984
lfemur -29.7266 -8.77799 -26.3952
ltibia 39.3707
lfoot -23.7915 -0.989419
ltoes -37.0028
261
root -8.78999 16.2577 4.84852 4.42846 80.9863 -5.1747
lowerback 12.6028 0.563604 5.31817
upperback -8.18715 2.10527 0.943547
thorax -16.2847 0.496919 -2.48872
lowerneck -11.7088 -2.58634 0.00491231
upperneck 45.7667 -0.247078 -2.38212
head 19.767 0.467469 -0.92488
rclavicle 2.80783e-015 9.54166e-015
rhumerus -55.6724 16.3434 -87.758
rradius 48.1598
rwrist -12.6323
rhand -24.2647 -20.7009
rfingers 7.12502
rthumb 2.22168 -50.6691
lclavicle 2.80783e-015 9.54166e-015
lhumerus -42.61 -4.84462 76.1153
lradius 34.8547
lwrist -14.6934
lhand -31.9847 30.5596
lfingers 7.12502
lthumb -5.23397 60.475
rfemur -16.1629 5.03581 31.9574
rtibia 21.9362
rfoot -7.98185 -14.3905
rtoes -20.1497
lfemur -28.6597 -10.2918 -25.6629
ltibia 35.3394
lfoot -22.4521 -0.889263
ltoes -38.4379
262
root -8.66559 16.4224 4.86726 2.27468 81.3609 -7.52787
lowerback 12.3677 0.545616 5.23601
upperback -8.27073 2.08229 1.09938
thorax -16.2466 0.511831 -2.25453
lowerneck -11.7658 -2.66114 -0.101216
upperneck 45.9616 -0.29221 -2.37706
head 19.9212 0.443578 -0.911789
rclavicle 1.51573e-014 -1.74931e-014
rhumerus -55.435 17.228 -87.7967
rradius 49.7021
rwrist -12.2511
rhand -24.7866 -20.0938
rfingers 7.12502
rthumb 1.71767 -50.0666
lclavicle 1.51573e-014 -1.74931e-014
lhumerus -41.4918 -4.4404 75.8104
lradius 33.5985
lwrist -15.5997
lhand -32.1145 30.3936
lfingers 7.12502
lthumb -5.35929 60.3058
rfemur -14.3549 5.45662 32.1555
rtibia 19
rfoot -6.2659 -15.4285
rtoes -20.668
lfemur -27.427 -11.9257 -24.887
ltibia 30.7204
lfoot -21.1136 -0.510329
ltoes -39.9527
263
root -8.53784 16.5622 4.88611 0.00641324 81.6618 -10.0469
lowerback 11.9831 0.543715 5.11829
upperback -8.35957 2.06615 1.25972
thorax -16.118 0.537667 -1.99417
lowerneck -11.8113 -2.74688 -0.189593
upperneck 46.1807 -0.363054 -2.36007
head 20.0899 0.415586 -0.900902
rclavicle 2.04748e-014 1.03368e-014
rhumerus -55.1594 18.1289 -87.7456
rradius 51.1159
rwrist -11.6229
rhand -25.283 -19.5317
rfingers 7.12502
rthumb 1.23828 -49.5079
lclavicle 2.04748e-014 1.03368e-014
lhumerus -40.5225 -4.04814 75.582
lradius 32.5235
lwrist -16.2109
lhand -32.1125 30.3024
lfingers 7.12502
lthumb -5.35737 60.2147
rfemur -12.8551 6.06767 32.4062
rtibia 16.5602
rfoot -4.93268 -16.483
rtoes -20.6103
lfemur -26.2028 -13.5476 -24.1349
ltibia 26.1485
lfoot -19.8372 0.45068
ltoes -41.3172
